<?xml version="1.0" encoding="UTF-8"?>
<!DOCTYPE svg PUBLIC "-//W3C//DTD SVG 1.1//EN" "http://www.w3.org/Graphics/SVG/1.1/DTD/svg11.dtd">
<svg xmlns="http://www.w3.org/2000/svg" version="1.1" width="301px" height="116px" style="shape-rendering:geometricPrecision; text-rendering:geometricPrecision; image-rendering:optimizeQuality; fill-rule:evenodd; clip-rule:evenodd" xmlns:xlink="http://www.w3.org/1999/xlink">
<g><path style="opacity:0.553" fill="#95908e" d="M 158.5,16.5 C 155.167,16.5 151.833,16.5 148.5,16.5C 151.799,13.9544 155.132,13.9544 158.5,16.5 Z"/></g>
<g><path style="opacity:0.431" fill="#918c8b" d="M 222.5,16.5 C 218.833,16.5 215.167,16.5 211.5,16.5C 215.135,13.9348 218.801,13.9348 222.5,16.5 Z"/></g>
<g><path style="opacity:1" fill="#f1f0ef" d="M 148.5,16.5 C 151.833,16.5 155.167,16.5 158.5,16.5C 170.753,17.4392 172.587,22.1059 164,30.5C 159.79,27.9946 155.29,27.1613 150.5,28C 148.675,29.4659 148.175,31.2992 149,33.5C 155.045,36.4401 160.879,39.7734 166.5,43.5C 173.1,51.4794 172.767,59.3127 165.5,67C 157.11,70.8165 148.443,71.4832 139.5,69C 136.166,67.6686 133.166,65.8353 130.5,63.5C 132.429,59.9667 134.595,56.6333 137,53.5C 139.39,54.2779 141.557,55.4445 143.5,57C 147.46,58.6634 151.46,58.8301 155.5,57.5C 158.044,55.3888 158.044,53.2221 155.5,51C 150.341,48.5879 145.341,45.9212 140.5,43C 133.594,34.716 133.928,26.716 141.5,19C 143.65,17.5886 145.984,16.7553 148.5,16.5 Z"/></g>
<g><path style="opacity:0.999" fill="#f4f3f2" d="M 211.5,16.5 C 215.167,16.5 218.833,16.5 222.5,16.5C 228.788,16.8102 233.788,19.4768 237.5,24.5C 235.547,28.1203 232.881,31.1203 229.5,33.5C 222.548,25.999 215.381,25.6657 208,32.5C 202.199,42.7411 204.032,51.2411 213.5,58C 220.509,59.6598 225.509,57.3265 228.5,51C 225.042,49.5845 221.375,49.0845 217.5,49.5C 217.5,46.5 217.5,43.5 217.5,40.5C 225.167,40.5 232.833,40.5 240.5,40.5C 240.5,44.8333 240.5,49.1667 240.5,53.5C 240.034,55.2012 240.034,56.7012 240.5,58C 235.746,64.5673 229.413,69.0673 221.5,71.5C 220.817,71.1373 220.15,70.8039 219.5,70.5C 215.881,69.7564 212.215,69.423 208.5,69.5C 199.182,65.8552 193.516,59.1885 191.5,49.5C 191.5,45.8333 191.5,42.1667 191.5,38.5C 192.958,26.3771 199.625,19.0437 211.5,16.5 Z"/></g>
<g><path style="opacity:0.76" fill="#9a694f" d="M 34.5,17.5 C 26.8333,17.5 19.1667,17.5 11.5,17.5C 11.5,34.8333 11.5,52.1667 11.5,69.5C 19.5,69.5 27.5,69.5 35.5,69.5C 27.0983,70.8279 18.5983,70.8279 10,69.5C 9.33333,52.1667 9.33333,34.8333 10,17.5C 10.5,17 11,16.5 11.5,16C 14.5,15.8333 17.5,15.6667 20.5,15.5C 25.424,15.3541 30.0907,16.0207 34.5,17.5 Z"/></g>
<g><path style="opacity:1" fill="#fa8f4d" d="M 34.5,17.5 C 38.2792,18.0525 40.9459,20.0525 42.5,23.5C 42.5,27.8333 42.5,32.1667 42.5,36.5C 42.1412,38.371 41.1412,39.871 39.5,41C 42.1064,41.7918 44.1064,43.2918 45.5,45.5C 45.427,47.0269 46.0937,48.0269 47.5,48.5C 47.5,52.5 47.5,56.5 47.5,60.5C 45.2441,65.748 41.2441,68.748 35.5,69.5C 27.5,69.5 19.5,69.5 11.5,69.5C 11.5,52.1667 11.5,34.8333 11.5,17.5C 19.1667,17.5 26.8333,17.5 34.5,17.5 Z M 28.5,27.5 C 30.1675,29.4786 30.8342,31.812 30.5,34.5C 28.412,35.9395 26.0786,36.6061 23.5,36.5C 23.7036,33.4547 23.7036,30.6213 23.5,28C 25.1341,27.5065 26.8008,27.3398 28.5,27.5 Z M 32.5,49.5 C 33.9395,51.588 34.6061,53.9214 34.5,56.5C 33.5,56.8333 32.8333,57.5 32.5,58.5C 30.1806,59.167 27.8473,59.3336 25.5,59C 24.0203,57.7009 23.3536,56.0342 23.5,54C 23.2556,51.6154 24.089,49.7821 26,48.5C 28.0989,49.2865 30.2655,49.6199 32.5,49.5 Z"/></g>
<g><path style="opacity:1" fill="#f8f8f7" d="M 74.5,17.5 C 91.139,23.4379 97.3056,35.1046 93,52.5C 84.8161,68.0807 71.9827,73.7474 54.5,69.5C 52.514,52.5322 51.8473,35.1989 52.5,17.5C 59.8333,17.5 67.1667,17.5 74.5,17.5 Z M 69.5,28.5 C 73.3599,29.6894 76.3599,32.0227 78.5,35.5C 78.4021,37.5529 79.0687,39.2196 80.5,40.5C 81.0955,51.3644 76.0955,57.3644 65.5,58.5C 64.362,49.2443 64.1954,39.9109 65,30.5C 66.049,28.8934 67.549,28.2267 69.5,28.5 Z"/></g>
<g><path style="opacity:1" fill="#fefefe" d="M 109.5,27.5 C 109.5,30.8333 109.5,34.1667 109.5,37.5C 114.975,38.4889 120.642,38.8222 126.5,38.5C 126.5,41.8333 126.5,45.1667 126.5,48.5C 122.833,48.5 119.167,48.5 115.5,48.5C 113.5,48.5 111.5,48.5 109.5,48.5C 109.5,52.1667 109.5,55.8333 109.5,59.5C 115.5,59.5 121.5,59.5 127.5,59.5C 127.5,62.8333 127.5,66.1667 127.5,69.5C 118.167,69.5 108.833,69.5 99.5,69.5C 98.5033,52.3414 98.17,35.008 98.5,17.5C 108.167,17.5 117.833,17.5 127.5,17.5C 127.5,20.5 127.5,23.5 127.5,26.5C 121.31,26.1771 115.31,26.5104 109.5,27.5 Z"/></g>
<g><path style="opacity:1" fill="#fcfcfc" d="M 186.5,69.5 C 182.973,69.8518 179.306,69.8518 175.5,69.5C 175.5,52.1667 175.5,34.8333 175.5,17.5C 179.167,17.5 182.833,17.5 186.5,17.5C 186.5,34.8333 186.5,52.1667 186.5,69.5 Z"/></g>
<g><path style="opacity:0.625" fill="#bcb6b5" d="M 186.5,69.5 C 186.5,52.1667 186.5,34.8333 186.5,17.5C 182.833,17.5 179.167,17.5 175.5,17.5C 175.5,34.8333 175.5,52.1667 175.5,69.5C 174.503,52.0079 174.17,34.3412 174.5,16.5C 178.833,16.5 183.167,16.5 187.5,16.5C 187.83,34.3412 187.497,52.0079 186.5,69.5 Z"/></g>
<g><path style="opacity:1" fill="#fafafa" d="M 258.5,18.5 C 265.248,27.6553 271.248,37.3219 276.5,47.5C 276.783,48.2891 277.283,48.9558 278,49.5C 278.5,38.8385 278.667,28.1719 278.5,17.5C 282.167,17.5 285.833,17.5 289.5,17.5C 289.5,34.8333 289.5,52.1667 289.5,69.5C 285.5,69.5 281.5,69.5 277.5,69.5C 271.514,60.2031 265.514,50.8698 259.5,41.5C 259.372,39.9102 258.705,38.5769 257.5,37.5C 256.501,48.1459 256.168,58.8126 256.5,69.5C 252.833,69.5 249.167,69.5 245.5,69.5C 245.5,52.1667 245.5,34.8333 245.5,17.5C 249.931,17.2307 254.265,17.564 258.5,18.5 Z"/></g>
<g><path style="opacity:0.658" fill="#b1a9a8" d="M 277.5,69.5 C 281.5,69.5 285.5,69.5 289.5,69.5C 289.5,52.1667 289.5,34.8333 289.5,17.5C 285.833,17.5 282.167,17.5 278.5,17.5C 278.667,28.1719 278.5,38.8385 278,49.5C 277.283,48.9558 276.783,48.2891 276.5,47.5C 277.33,37.3415 277.83,27.0081 278,16.5C 282.015,16.303 286.182,16.303 290.5,16.5C 290.187,33.7016 290.521,50.8682 291.5,68C 291.355,68.772 291.022,69.4387 290.5,70C 285.98,70.8136 281.646,70.647 277.5,69.5 Z"/></g>
<g><path style="opacity:0.51" fill="#9d9795" d="M 74.5,17.5 C 67.1667,17.5 59.8333,17.5 52.5,17.5C 51.8473,35.1989 52.514,52.5322 54.5,69.5C 53.791,70.404 52.791,70.7373 51.5,70.5C 50.8798,52.5163 50.8798,34.5163 51.5,16.5C 57.3967,15.65 63.5634,15.3167 70,15.5C 71.7275,15.899 73.2275,16.5657 74.5,17.5 Z"/></g>
<g><path style="opacity:0.352" fill="#86604d" d="M 28.5,27.5 C 26.8008,27.3398 25.1341,27.5065 23.5,28C 23.7036,30.6213 23.7036,33.4547 23.5,36.5C 26.0786,36.6061 28.412,35.9395 30.5,34.5C 30.4226,35.7498 29.756,36.5831 28.5,37C 26.5273,37.4955 24.5273,37.6621 22.5,37.5C 22.5,33.8333 22.5,30.1667 22.5,26.5C 24.7354,26.2053 26.7354,26.5386 28.5,27.5 Z"/></g>
<g><path style="opacity:0.885" fill="#9f6b4f" d="M 42.5,23.5 C 45.1667,27.8333 45.1667,32.1667 42.5,36.5C 42.5,32.1667 42.5,27.8333 42.5,23.5 Z"/></g>
<g><path style="opacity:0.658" fill="#b0abab" d="M 69.5,28.5 C 67.549,28.2267 66.049,28.8934 65,30.5C 64.1954,39.9109 64.362,49.2443 65.5,58.5C 63.5247,48.5541 62.8581,38.2208 63.5,27.5C 65.7354,27.2053 67.7354,27.5386 69.5,28.5 Z"/></g>
<g><path style="opacity:0.512" fill="#a9a3a1" d="M 258.5,18.5 C 254.265,17.564 249.931,17.2307 245.5,17.5C 245.5,34.8333 245.5,52.1667 245.5,69.5C 244.173,51.9955 244.173,34.3288 245.5,16.5C 249.055,16.7023 252.722,16.369 256.5,15.5C 257.919,16.0047 258.585,17.0047 258.5,18.5 Z"/></g>
<g><path style="opacity:0.396" fill="#776d6b" d="M 109.5,27.5 C 114.167,27.5 118.833,27.5 123.5,27.5C 119.353,28.3247 115.019,28.8247 110.5,29C 110.714,31.7607 110.714,34.594 110.5,37.5C 110.167,37.5 109.833,37.5 109.5,37.5C 109.5,34.1667 109.5,30.8333 109.5,27.5 Z"/></g>
<g><path style="opacity:0.071" fill="#705850" d="M 28.5,27.5 C 29.4959,27.4142 30.3292,27.7476 31,28.5C 31.7891,30.7116 31.6225,32.7116 30.5,34.5C 30.8342,31.812 30.1675,29.4786 28.5,27.5 Z"/></g>
<g><path style="opacity:0.447" fill="#8c706f" d="M 78.5,35.5 C 79.9313,36.7804 80.5979,38.4471 80.5,40.5C 79.0687,39.2196 78.4021,37.5529 78.5,35.5 Z"/></g>
<g><path style="opacity:0.631" fill="#a59d9c" d="M 259.5,41.5 C 258.778,41.9175 258.278,42.5842 258,43.5C 257.5,52.4938 257.334,61.4938 257.5,70.5C 253.298,70.8168 249.298,70.4834 245.5,69.5C 249.167,69.5 252.833,69.5 256.5,69.5C 256.168,58.8126 256.501,48.1459 257.5,37.5C 258.705,38.5769 259.372,39.9102 259.5,41.5 Z"/></g>
<g><path style="opacity:0.716" fill="#c4c0bf" d="M 109.5,37.5 C 109.833,37.5 110.167,37.5 110.5,37.5C 116.176,37.3339 121.843,37.5006 127.5,38C 127.317,40.8932 127.651,43.8932 128.5,47C 127.956,47.7172 127.289,48.2172 126.5,48.5C 126.5,45.1667 126.5,41.8333 126.5,38.5C 120.642,38.8222 114.975,38.4889 109.5,37.5 Z"/></g>
<g><path style="opacity:0.502" fill="#b6b0ae" d="M 240.5,53.5 C 240.5,49.1667 240.5,44.8333 240.5,40.5C 232.833,40.5 225.167,40.5 217.5,40.5C 217.5,43.5 217.5,46.5 217.5,49.5C 216.522,49.189 215.855,48.5223 215.5,47.5C 216.393,44.9159 216.726,42.2492 216.5,39.5C 224.833,39.5 233.167,39.5 241.5,39.5C 241.819,44.3633 241.486,49.03 240.5,53.5 Z"/></g>
<g><path style="opacity:0.337" fill="#7d7573" d="M 191.5,38.5 C 191.5,42.1667 191.5,45.8333 191.5,49.5C 190.475,48.6261 189.808,47.4595 189.5,46C 190.016,43.3309 190.683,40.8309 191.5,38.5 Z"/></g>
<g><path style="opacity:0.086" fill="#785f51" d="M 45.5,45.5 C 46.9063,45.9731 47.573,46.9731 47.5,48.5C 46.0937,48.0269 45.427,47.0269 45.5,45.5 Z"/></g>
<g><path style="opacity:0.345" fill="#8a634e" d="M 32.5,49.5 C 30.2655,49.6199 28.0989,49.2865 26,48.5C 24.089,49.7821 23.2556,51.6154 23.5,54C 23.3536,56.0342 24.0203,57.7009 25.5,59C 27.8473,59.3336 30.1806,59.167 32.5,58.5C 32.3893,59.1174 32.056,59.6174 31.5,60C 28.5184,60.498 25.5184,60.6646 22.5,60.5C 22.5,56.1667 22.5,51.8333 22.5,47.5C 26.1595,47.1588 29.4928,47.8255 32.5,49.5 Z"/></g>
<g><path style="opacity:0.732" fill="#cac6c5" d="M 123.5,27.5 C 118.833,27.5 114.167,27.5 109.5,27.5C 115.31,26.5104 121.31,26.1771 127.5,26.5C 127.5,23.5 127.5,20.5 127.5,17.5C 117.833,17.5 108.167,17.5 98.5,17.5C 98.17,35.008 98.5033,52.3414 99.5,69.5C 98.2566,70.7375 97.2566,70.4041 96.5,68.5C 97.486,51.2139 97.8193,33.8805 97.5,16.5C 107.833,16.5 118.167,16.5 128.5,16.5C 128.665,20.1817 128.499,23.8484 128,27.5C 126.51,28.7279 125.01,28.7279 123.5,27.5 Z"/></g>
<g><path style="opacity:0.176" fill="#866350" d="M 32.5,49.5 C 33.7498,49.5774 34.5831,50.244 35,51.5C 35.7796,53.3869 35.6129,55.0536 34.5,56.5C 34.6061,53.9214 33.9395,51.588 32.5,49.5 Z"/></g>
<g><path style="opacity:0.627" fill="#806151" d="M 47.5,48.5 C 50.1667,52.5 50.1667,56.5 47.5,60.5C 47.5,56.5 47.5,52.5 47.5,48.5 Z"/></g>
<g><path style="opacity:0.616" fill="#aba3a1" d="M 115.5,48.5 C 114.282,49.1614 112.949,49.8281 111.5,50.5C 110.607,53.0841 110.274,55.7508 110.5,58.5C 116.5,58.5 122.5,58.5 128.5,58.5C 128.815,62.3714 128.482,66.0381 127.5,69.5C 127.5,66.1667 127.5,62.8333 127.5,59.5C 121.5,59.5 115.5,59.5 109.5,59.5C 109.5,55.8333 109.5,52.1667 109.5,48.5C 111.5,48.5 113.5,48.5 115.5,48.5 Z"/></g>
<g><path style="opacity:0.922" fill="#a9a1a0" d="M 208.5,69.5 C 212.215,69.423 215.881,69.7564 219.5,70.5C 215.735,71.774 212.069,71.4407 208.5,69.5 Z"/></g>
<g><path style="opacity:0.78" fill="#bcb9b9" d="M 178.5,82.5 C 178.833,82.5 179.167,82.5 179.5,82.5C 179.5,88.1667 179.5,93.8333 179.5,99.5C 179.167,99.5 178.833,99.5 178.5,99.5C 178.411,93.919 178.411,88.2524 178.5,82.5 Z"/></g>
<g><path style="opacity:0.999" fill="#fefffe" d="M 179.5,82.5 C 182.833,82.5 186.167,82.5 189.5,82.5C 189.5,88.1667 189.5,93.8333 189.5,99.5C 186.167,99.5 182.833,99.5 179.5,99.5C 179.5,93.8333 179.5,88.1667 179.5,82.5 Z"/></g>
<g><path style="opacity:0.732" fill="#a6a1a0" d="M 148.5,88.5 C 147.129,87.2132 145.295,86.5465 143,86.5C 140.705,86.5465 138.871,87.2132 137.5,88.5C 135.451,88.2942 135.117,87.4609 136.5,86C 140.421,85.797 144.255,85.297 148,84.5C 150.934,85.4225 151.1,86.7559 148.5,88.5 Z"/></g>
<g><path style="opacity:0.995" fill="#cdcac8" d="M 19.5,83.5 C 21.8783,84.6924 23.8783,86.359 25.5,88.5C 23.6409,91.0186 21.6409,91.0186 19.5,88.5C 15.3912,90.1919 14.7246,92.6919 17.5,96C 19.3774,96.5758 21.2108,96.4091 23,95.5C 24.2798,95.6135 25.1131,96.2801 25.5,97.5C 22.2061,100.74 18.5394,101.24 14.5,99C 11.2306,95.5469 10.7306,91.7135 13,87.5C 15.3143,86.2668 17.4809,84.9334 19.5,83.5 Z"/></g>
<g><path style="opacity:0.995" fill="#d4d1d0" d="M 34.5,84.5 C 40.6382,84.1385 44.3049,86.9718 45.5,93C 42.793,99.8465 38.1263,101.68 31.5,98.5C 27.1097,92.7882 28.1097,88.1216 34.5,84.5 Z M 35.5,88.5 C 40.6804,89.4042 41.6804,91.9042 38.5,96C 33.9167,96.9337 32.4167,95.1004 34,90.5C 34.7172,89.9558 35.2172,89.2891 35.5,88.5 Z"/></g>
<g><path style="opacity:0.997" fill="#cfcccb" d="M 48.5,85.5 C 52.1817,85.3347 55.8484,85.5014 59.5,86C 63.0563,88.9428 63.3897,92.2761 60.5,96C 63.2473,99.6102 62.2473,100.944 57.5,100C 55.6175,95.5344 53.9508,95.5344 52.5,100C 51.2161,100.684 50.0495,100.517 49,99.5C 48.7927,94.9924 48.626,90.3257 48.5,85.5 Z M 53.5,88.5 C 56.5,88.1667 57.8333,89.5 57.5,92.5C 56.1667,92.5 54.8333,92.5 53.5,92.5C 53.5,91.1667 53.5,89.8333 53.5,88.5 Z"/></g>
<g><path style="opacity:0.996" fill="#dedbda" d="M 69.5,84.5 C 74.6431,84.0899 77.9765,86.2565 79.5,91C 77.7577,94.8719 74.7577,96.7053 70.5,96.5C 70.5499,98.5901 69.5499,99.9234 67.5,100.5C 66.668,95.508 66.0014,90.508 65.5,85.5C 67.099,85.7678 68.4324,85.4345 69.5,84.5 Z M 70.5,88.5 C 73.179,88.5246 74.5123,89.858 74.5,92.5C 73.1667,92.5 71.8333,92.5 70.5,92.5C 70.5,91.1667 70.5,89.8333 70.5,88.5 Z"/></g>
<g><path style="opacity:0.995" fill="#d5d0cf" d="M 88.5,84.5 C 96.9052,85.3791 99.7385,89.7124 97,97.5C 93.5275,100.658 89.6942,101.158 85.5,99C 80.8765,92.8909 81.8765,88.0576 88.5,84.5 Z M 89.5,88.5 C 94.3051,89.5995 95.3051,92.0995 92.5,96C 89.1861,97.1647 87.1861,95.9981 86.5,92.5C 87.1716,90.8405 88.1716,89.5072 89.5,88.5 Z"/></g>
<g><path style="opacity:0.995" fill="#cfcbca" d="M 107.5,84.5 C 115.511,84.9396 117.511,88.6062 113.5,95.5C 114.313,96.8139 115.313,97.9805 116.5,99C 115.892,99.8699 115.059,100.37 114,100.5C 111.733,99.7293 109.9,98.3959 108.5,96.5C 107.85,100.021 106.017,101.021 103,99.5C 102.501,94.8452 102.334,90.1785 102.5,85.5C 104.415,85.7845 106.081,85.4511 107.5,84.5 Z M 107.5,88.5 C 112.757,89.9704 112.757,91.3037 107.5,92.5C 107.5,91.1667 107.5,89.8333 107.5,88.5 Z"/></g>
<g><path style="opacity:0.994" fill="#cecbca" d="M 124.5,85.5 C 126.167,85.5 127.833,85.5 129.5,85.5C 130.568,90.0327 132.234,94.366 134.5,98.5C 134.167,99.5 133.5,100.167 132.5,100.5C 130.725,99.0611 128.725,98.0611 126.5,97.5C 124.224,98.279 122.058,99.279 120,100.5C 118.941,100.37 118.108,99.8699 117.5,99C 120.307,94.7452 122.64,90.2452 124.5,85.5 Z M 125.5,91.5 C 127.337,91.6395 127.67,92.3061 126.5,93.5C 125.702,93.0431 125.369,92.3764 125.5,91.5 Z"/></g>
<g><path style="opacity:0.997" fill="#d8d2d1" d="M 148.5,88.5 C 147.5,88.5 146.5,88.5 145.5,88.5C 145.665,92.1817 145.499,95.8484 145,99.5C 143.667,100.833 142.333,100.833 141,99.5C 140.501,95.8484 140.335,92.1817 140.5,88.5C 139.5,88.5 138.5,88.5 137.5,88.5C 138.871,87.2132 140.705,86.5465 143,86.5C 145.295,86.5465 147.129,87.2132 148.5,88.5 Z"/></g>
<g><path style="opacity:0.997" fill="#f7f5f5" d="M 153.5,86.5 C 156.85,86.335 160.183,86.5017 163.5,87C 161.19,87.4966 158.857,87.6633 156.5,87.5C 156.5,88.8333 156.5,90.1667 156.5,91.5C 164.5,92.1667 164.5,92.8333 156.5,93.5C 156.5,94.8333 156.5,96.1667 156.5,97.5C 159.388,96.9898 161.721,97.6565 163.5,99.5C 160.167,99.5 156.833,99.5 153.5,99.5C 153.5,95.1667 153.5,90.8333 153.5,86.5 Z"/></g>
<g><path style="opacity:0.196" fill="#776b68" d="M 153.5,85.5 C 153.5,85.8333 153.5,86.1667 153.5,86.5C 153.5,90.8333 153.5,95.1667 153.5,99.5C 152.809,95.1007 152.142,90.6007 151.5,86C 152.094,85.5357 152.761,85.369 153.5,85.5 Z"/></g>
<g><path style="opacity:0.239" fill="#847975" d="M 178.5,82.5 C 182.298,81.5166 186.298,81.1832 190.5,81.5C 190.5,87.8333 190.5,94.1667 190.5,100.5C 186.298,100.817 182.298,100.483 178.5,99.5C 178.833,99.5 179.167,99.5 179.5,99.5C 182.833,99.5 186.167,99.5 189.5,99.5C 189.5,93.8333 189.5,88.1667 189.5,82.5C 186.167,82.5 182.833,82.5 179.5,82.5C 179.167,82.5 178.833,82.5 178.5,82.5 Z"/></g>
<g><path style="opacity:0.424" fill="#988f8d" d="M 163.5,99.5 C 161.721,97.6565 159.388,96.9898 156.5,97.5C 156.5,96.1667 156.5,94.8333 156.5,93.5C 164.5,92.8333 164.5,92.1667 156.5,91.5C 156.5,90.1667 156.5,88.8333 156.5,87.5C 158.857,87.6633 161.19,87.4966 163.5,87C 160.183,86.5017 156.85,86.335 153.5,86.5C 153.5,86.1667 153.5,85.8333 153.5,85.5C 156.64,84.3592 159.973,84.1925 163.5,85C 164.731,86.1827 164.731,87.3493 163.5,88.5C 161.244,88.349 159.244,88.6824 157.5,89.5C 159.396,90.4656 161.396,90.7989 163.5,90.5C 163.762,91.9778 163.429,93.3112 162.5,94.5C 160.883,94.6694 159.216,95.0028 157.5,95.5C 159.398,96.1268 161.731,96.4602 164.5,96.5C 164.737,97.791 164.404,98.791 163.5,99.5 Z"/></g>
</svg>
